<svg id="svg" version="1.1" width="400" height="400" viewBox="0 0 400 400" xmlns="http://www.w3.org/2000/svg" xmlns:xlink="http://www.w3.org/1999/xlink" ><g id="svgg"><path id="path0" d="M178.175 76.781 C 177.749 77.210,177.184 77.795,176.919 78.081 C 176.655 78.366,176.205 78.816,175.919 79.081 C 175.634 79.345,175.184 79.795,174.919 80.081 C 174.655 80.366,174.205 80.816,173.919 81.081 C 173.157 81.787,172.400 82.735,172.400 82.983 C 172.400 83.102,171.320 84.280,170.000 85.600 C 168.680 86.920,167.600 88.174,167.600 88.386 C 167.600 88.599,166.366 89.994,164.858 91.487 C 163.351 92.980,161.991 94.597,161.838 95.080 C 161.685 95.564,161.208 96.070,160.780 96.206 C 160.351 96.343,160.000 96.601,160.000 96.780 C 160.000 96.959,159.280 97.826,158.400 98.706 C 157.520 99.586,156.800 100.406,156.800 100.528 C 156.800 100.649,155.720 101.867,154.400 103.233 C 153.080 104.598,152.000 105.960,152.000 106.258 C 152.000 106.556,151.821 106.800,151.603 106.800 C 150.920 106.800,148.000 108.173,148.000 108.494 C 148.000 108.662,147.622 108.800,147.160 108.800 C 146.322 108.800,143.579 109.923,143.200 110.421 C 143.090 110.566,142.325 110.809,141.500 110.960 C 140.675 111.112,140.000 111.408,140.000 111.618 C 140.000 111.828,139.640 112.000,139.200 112.000 C 138.760 112.000,138.400 112.180,138.400 112.400 C 138.400 112.620,138.130 112.800,137.800 112.800 C 137.470 112.800,137.200 112.960,137.200 113.155 C 137.200 113.350,136.390 113.631,135.400 113.779 C 134.410 113.928,133.600 114.218,133.600 114.425 C 133.600 114.631,133.330 114.800,133.000 114.800 C 132.670 114.800,132.400 114.980,132.400 115.200 C 132.400 115.420,132.022 115.600,131.560 115.600 C 130.722 115.600,127.979 116.723,127.600 117.221 C 127.490 117.366,126.725 117.609,125.900 117.760 C 125.075 117.912,124.400 118.208,124.400 118.418 C 124.400 118.628,124.040 118.800,123.600 118.800 C 123.160 118.800,122.800 118.978,122.800 119.195 C 122.800 119.413,122.080 119.706,121.200 119.846 C 120.320 119.987,119.600 120.259,119.600 120.451 C 119.600 120.643,119.240 120.800,118.800 120.800 C 118.360 120.800,118.000 120.980,118.000 121.200 C 118.000 121.420,117.730 121.600,117.400 121.600 C 117.070 121.600,116.800 121.780,116.800 122.000 C 116.800 122.220,116.363 122.400,115.829 122.400 C 114.173 122.400,113.600 123.384,113.600 126.229 C 113.600 127.676,113.425 128.800,113.200 128.800 C 112.965 128.800,112.800 130.200,112.800 132.200 C 112.800 134.200,112.635 135.600,112.400 135.600 C 112.161 135.600,112.000 137.133,112.000 139.400 C 112.000 141.490,111.838 143.200,111.640 143.200 C 111.442 143.200,111.149 146.440,110.989 150.400 C 110.829 154.360,110.541 157.600,110.349 157.600 C 110.157 157.600,110.000 159.018,110.000 160.751 C 110.000 163.064,109.840 164.034,109.400 164.400 C 109.070 164.674,108.800 165.236,108.800 165.649 C 108.800 166.062,108.620 166.400,108.400 166.400 C 108.180 166.400,108.000 166.670,108.000 167.000 C 108.000 167.330,107.840 167.600,107.643 167.600 C 107.447 167.600,107.174 168.050,107.036 168.600 C 106.898 169.150,106.608 169.600,106.392 169.600 C 106.177 169.600,106.000 169.870,106.000 170.200 C 106.000 170.530,105.820 170.800,105.600 170.800 C 105.380 170.800,105.200 171.138,105.200 171.551 C 105.200 171.964,104.930 172.526,104.600 172.800 C 104.270 173.074,104.000 173.546,104.000 173.849 C 104.000 174.152,103.820 174.400,103.600 174.400 C 103.380 174.400,103.200 174.670,103.200 175.000 C 103.200 175.330,103.023 175.600,102.808 175.600 C 102.592 175.600,102.302 176.050,102.164 176.600 C 102.026 177.150,101.753 177.600,101.557 177.600 C 101.360 177.600,101.200 177.941,101.200 178.357 C 101.200 178.774,100.930 179.218,100.600 179.345 C 100.270 179.471,100.000 179.941,100.000 180.387 C 100.000 180.834,99.820 181.200,99.600 181.200 C 99.380 181.200,99.200 181.470,99.200 181.800 C 99.200 182.130,99.040 182.400,98.843 182.400 C 98.647 182.400,98.374 182.850,98.236 183.400 C 98.098 183.950,97.808 184.400,97.592 184.400 C 97.377 184.400,97.200 184.760,97.200 185.200 C 97.200 185.640,97.040 186.000,96.843 186.000 C 96.647 186.000,96.374 186.450,96.236 187.000 C 96.098 187.550,95.808 188.000,95.592 188.000 C 95.377 188.000,95.200 188.270,95.200 188.600 C 95.200 188.930,95.063 189.200,94.895 189.200 C 94.590 189.200,94.481 189.378,93.021 192.261 C 92.592 193.108,92.122 193.890,91.975 194.000 C 91.828 194.110,91.581 194.605,91.427 195.100 C 91.272 195.595,90.978 196.000,90.773 196.000 C 90.568 196.000,90.400 196.270,90.400 196.600 C 90.400 196.930,90.231 197.200,90.025 197.200 C 88.610 197.200,89.415 202.616,91.085 204.329 C 91.368 204.619,91.600 205.114,91.600 205.429 C 91.600 205.743,91.737 206.000,91.905 206.000 C 92.210 206.000,92.317 206.175,93.780 209.061 C 94.208 209.908,94.871 210.881,95.253 211.224 C 95.634 211.567,96.069 212.336,96.219 212.933 C 96.369 213.530,96.807 214.239,97.192 214.509 C 97.577 214.779,98.021 215.585,98.178 216.300 C 98.335 217.015,98.629 217.600,98.832 217.600 C 99.034 217.600,99.200 217.870,99.200 218.200 C 99.200 218.530,99.377 218.800,99.592 218.800 C 99.808 218.800,100.098 219.250,100.236 219.800 C 100.374 220.350,100.647 220.800,100.843 220.800 C 101.040 220.800,101.200 221.160,101.200 221.600 C 101.200 222.040,101.377 222.400,101.592 222.400 C 101.808 222.400,102.098 222.850,102.236 223.400 C 102.374 223.950,102.647 224.400,102.843 224.400 C 103.040 224.400,103.200 224.630,103.200 224.912 C 103.200 225.193,103.559 225.682,103.998 225.999 C 104.437 226.315,104.906 227.159,105.040 227.873 C 105.180 228.621,105.588 229.269,106.000 229.400 C 106.425 229.535,106.822 230.191,106.976 231.014 C 107.119 231.776,107.408 232.400,107.618 232.400 C 107.828 232.400,108.000 232.670,108.000 233.000 C 108.000 233.330,108.145 233.600,108.323 233.600 C 109.096 233.600,110.000 236.787,110.000 239.511 C 110.000 241.074,110.158 242.450,110.351 242.570 C 110.544 242.689,110.834 245.940,110.994 249.793 C 111.155 253.647,111.447 256.800,111.643 256.800 C 111.839 256.800,112.000 258.330,112.000 260.200 C 112.000 262.200,112.165 263.600,112.400 263.600 C 112.639 263.600,112.800 265.133,112.800 267.400 C 112.800 269.667,112.961 271.200,113.200 271.200 C 113.420 271.200,113.600 272.202,113.600 273.426 C 113.600 275.859,114.103 277.200,115.014 277.200 C 115.336 277.200,115.600 277.372,115.600 277.582 C 115.600 277.792,116.275 278.088,117.100 278.240 C 117.925 278.391,118.690 278.634,118.800 278.779 C 119.179 279.277,121.922 280.400,122.760 280.400 C 123.222 280.400,123.600 280.580,123.600 280.800 C 123.600 281.020,123.870 281.200,124.200 281.200 C 124.530 281.200,124.800 281.360,124.800 281.555 C 124.800 281.751,125.430 282.029,126.200 282.174 C 126.970 282.318,127.600 282.608,127.600 282.818 C 127.600 283.028,128.050 283.200,128.600 283.200 C 129.150 283.200,129.600 283.380,129.600 283.600 C 129.600 283.820,129.960 284.000,130.400 284.000 C 130.840 284.000,131.200 284.172,131.200 284.382 C 131.200 284.592,131.875 284.888,132.700 285.040 C 133.525 285.191,134.290 285.434,134.400 285.579 C 134.779 286.077,137.522 287.200,138.360 287.200 C 138.822 287.200,139.200 287.380,139.200 287.600 C 139.200 287.820,139.470 288.000,139.800 288.000 C 140.130 288.000,140.400 288.160,140.400 288.355 C 140.400 288.551,141.030 288.829,141.800 288.974 C 142.570 289.118,143.200 289.408,143.200 289.618 C 143.200 289.828,143.650 290.000,144.200 290.000 C 144.750 290.000,145.200 290.172,145.200 290.382 C 145.200 290.592,145.830 290.882,146.600 291.026 C 147.370 291.171,148.000 291.449,148.000 291.645 C 148.000 291.840,148.450 292.000,149.000 292.000 C 149.550 292.000,150.000 292.180,150.000 292.400 C 150.000 292.620,150.270 292.800,150.600 292.800 C 150.930 292.800,151.200 292.968,151.200 293.173 C 151.200 293.378,151.551 293.657,151.980 293.794 C 152.408 293.930,152.883 294.432,153.035 294.910 C 153.187 295.388,154.546 296.983,156.055 298.454 C 157.565 299.925,158.800 301.242,158.800 301.381 C 158.800 301.715,159.414 302.439,161.700 304.800 C 162.745 305.879,163.600 306.873,163.600 307.010 C 163.600 307.146,164.770 308.421,166.200 309.844 C 167.630 311.267,168.800 312.617,168.800 312.843 C 168.800 313.069,169.880 314.324,171.200 315.632 C 172.520 316.940,173.600 318.136,173.600 318.291 C 173.600 318.445,173.959 318.938,174.399 319.386 C 174.838 319.834,175.825 320.875,176.592 321.700 C 177.952 323.164,183.600 324.097,183.600 322.857 C 183.600 322.669,184.901 322.394,186.491 322.246 C 188.081 322.098,189.557 321.803,189.771 321.589 C 189.985 321.375,190.844 321.200,191.680 321.200 C 192.516 321.200,193.200 321.020,193.200 320.800 C 193.200 320.580,193.830 320.400,194.600 320.400 C 195.370 320.400,196.000 320.235,196.000 320.034 C 196.000 319.833,197.350 319.542,199.000 319.387 C 200.650 319.233,202.000 318.947,202.000 318.753 C 202.000 318.559,202.630 318.400,203.400 318.400 C 204.170 318.400,204.800 318.241,204.800 318.047 C 204.800 317.853,206.150 317.567,207.800 317.413 C 209.450 317.258,210.800 316.967,210.800 316.766 C 210.800 316.565,211.484 316.400,212.320 316.400 C 213.156 316.400,214.065 316.175,214.340 315.900 C 214.677 315.563,216.223 315.400,219.087 315.400 C 222.128 315.400,223.381 315.542,223.500 315.900 C 223.600 316.199,224.376 316.400,225.433 316.400 C 226.405 316.400,227.200 316.565,227.200 316.766 C 227.200 316.967,228.550 317.258,230.200 317.413 C 231.850 317.567,233.200 317.853,233.200 318.047 C 233.200 318.241,233.830 318.400,234.600 318.400 C 235.370 318.400,236.000 318.559,236.000 318.753 C 236.000 318.947,237.350 319.233,239.000 319.387 C 240.650 319.542,242.000 319.833,242.000 320.034 C 242.000 320.235,242.720 320.400,243.600 320.400 C 244.480 320.400,245.200 320.580,245.200 320.800 C 245.200 321.020,245.819 321.200,246.576 321.200 C 247.333 321.200,248.049 321.356,248.168 321.547 C 248.286 321.739,249.642 322.019,251.182 322.171 C 252.722 322.322,254.086 322.616,254.214 322.823 C 255.323 324.618,262.800 322.153,262.800 319.993 C 262.800 319.806,263.151 319.543,263.580 319.406 C 264.008 319.270,264.477 318.789,264.620 318.336 C 264.764 317.883,266.123 316.274,267.641 314.759 C 269.158 313.245,270.400 311.831,270.400 311.617 C 270.400 311.403,271.615 309.968,273.100 308.429 C 274.585 306.890,276.340 304.985,277.000 304.195 C 277.660 303.405,278.695 302.289,279.300 301.713 C 279.905 301.138,280.400 300.506,280.400 300.309 C 280.400 300.112,281.630 298.730,283.133 297.239 C 284.635 295.748,285.981 294.225,286.123 293.855 C 286.266 293.485,286.701 293.075,287.091 292.944 C 288.796 292.373,290.000 291.784,290.000 291.520 C 290.000 291.364,290.630 291.118,291.400 290.974 C 292.170 290.829,292.800 290.551,292.800 290.355 C 292.800 290.160,293.250 290.000,293.800 290.000 C 294.350 290.000,294.800 289.828,294.800 289.618 C 294.800 289.408,295.430 289.118,296.200 288.974 C 296.970 288.829,297.600 288.551,297.600 288.355 C 297.600 288.160,297.842 288.000,298.139 288.000 C 298.640 288.000,300.483 287.243,302.095 286.374 C 302.477 286.168,303.062 286.000,303.395 286.000 C 303.728 286.000,304.000 285.840,304.000 285.645 C 304.000 285.449,304.630 285.171,305.400 285.026 C 306.170 284.882,306.800 284.592,306.800 284.382 C 306.800 284.172,307.160 284.000,307.600 284.000 C 308.040 284.000,308.400 283.820,308.400 283.600 C 308.400 283.380,308.850 283.200,309.400 283.200 C 309.950 283.200,310.400 283.028,310.400 282.818 C 310.400 282.608,311.030 282.318,311.800 282.174 C 312.570 282.029,313.200 281.751,313.200 281.555 C 313.200 281.360,313.549 281.200,313.976 281.200 C 314.403 281.200,314.855 281.034,314.981 280.831 C 315.106 280.628,315.747 280.343,316.405 280.199 C 317.062 280.055,317.600 279.771,317.600 279.568 C 317.600 279.366,318.050 279.200,318.600 279.200 C 319.150 279.200,319.600 279.040,319.600 278.845 C 319.600 278.649,320.230 278.371,321.000 278.226 C 321.770 278.082,322.400 277.792,322.400 277.582 C 322.400 277.372,322.741 277.200,323.157 277.200 C 324.092 277.200,324.400 276.450,324.400 274.167 C 324.400 273.195,324.580 272.400,324.800 272.400 C 325.035 272.400,325.200 271.000,325.200 269.000 C 325.200 267.130,325.358 265.600,325.551 265.600 C 325.745 265.600,326.034 262.449,326.194 258.597 C 326.355 254.745,326.647 251.495,326.843 251.373 C 327.039 251.252,327.200 249.543,327.200 247.576 C 327.200 245.609,327.356 244.000,327.548 244.000 C 327.739 244.000,327.980 242.093,328.084 239.763 C 328.187 237.433,328.436 235.408,328.637 235.263 C 328.837 235.118,329.271 234.460,329.601 233.800 C 329.930 233.140,330.425 232.362,330.700 232.071 C 330.975 231.781,331.200 231.286,331.200 230.971 C 331.200 230.657,331.380 230.400,331.600 230.400 C 331.820 230.400,332.000 230.130,332.000 229.800 C 332.000 229.470,332.180 229.200,332.400 229.200 C 332.620 229.200,332.800 228.834,332.800 228.387 C 332.800 227.941,333.070 227.471,333.400 227.345 C 333.730 227.218,334.000 226.774,334.000 226.357 C 334.000 225.941,334.160 225.600,334.357 225.600 C 334.553 225.600,334.826 225.150,334.964 224.600 C 335.102 224.050,335.392 223.600,335.608 223.600 C 335.823 223.600,336.000 223.330,336.000 223.000 C 336.000 222.670,336.180 222.400,336.400 222.400 C 336.620 222.400,336.800 222.034,336.800 221.587 C 336.800 221.141,337.070 220.671,337.400 220.545 C 337.730 220.418,338.000 219.974,338.000 219.557 C 338.000 219.141,338.180 218.800,338.400 218.800 C 338.620 218.800,338.800 218.530,338.800 218.200 C 338.800 217.870,338.977 217.600,339.192 217.600 C 339.408 217.600,339.698 217.150,339.836 216.600 C 339.974 216.050,340.210 215.600,340.361 215.600 C 340.512 215.600,340.970 214.790,341.378 213.800 C 341.787 212.810,342.273 212.000,342.460 212.000 C 342.647 212.000,342.800 211.730,342.800 211.400 C 342.800 211.070,342.960 210.800,343.157 210.800 C 343.353 210.800,343.626 210.350,343.764 209.800 C 343.902 209.250,344.192 208.800,344.408 208.800 C 344.623 208.800,344.800 208.530,344.800 208.200 C 344.800 207.870,344.980 207.600,345.200 207.600 C 345.420 207.600,345.600 207.262,345.600 206.849 C 345.600 206.436,345.870 205.874,346.200 205.600 C 346.530 205.326,346.800 204.854,346.800 204.551 C 346.800 204.248,346.938 204.000,347.106 204.000 C 348.330 204.000,349.249 198.506,348.200 197.457 C 347.870 197.127,347.600 196.664,347.600 196.429 C 347.600 196.193,347.420 196.000,347.200 196.000 C 346.980 196.000,346.800 195.730,346.800 195.400 C 346.800 195.070,346.620 194.800,346.400 194.800 C 346.180 194.800,346.000 194.453,346.000 194.029 C 346.000 193.604,345.730 192.987,345.400 192.657 C 345.070 192.327,344.800 191.864,344.800 191.629 C 344.800 191.393,344.640 191.200,344.443 191.200 C 344.247 191.200,343.974 190.750,343.836 190.200 C 343.698 189.650,343.408 189.200,343.192 189.200 C 342.977 189.200,342.800 188.930,342.800 188.600 C 342.800 188.270,342.620 188.000,342.400 188.000 C 342.180 188.000,342.000 187.634,342.000 187.187 C 342.000 186.741,341.730 186.271,341.400 186.145 C 341.070 186.018,340.800 185.574,340.800 185.157 C 340.800 184.741,340.640 184.400,340.443 184.400 C 340.247 184.400,339.984 183.991,339.859 183.492 C 339.734 182.993,339.264 182.190,338.815 181.709 C 338.367 181.227,338.000 180.556,338.000 180.217 C 338.000 179.878,337.840 179.600,337.643 179.600 C 337.447 179.600,337.174 179.150,337.036 178.600 C 336.898 178.050,336.608 177.600,336.392 177.600 C 336.177 177.600,336.000 177.330,336.000 177.000 C 336.000 176.670,335.840 176.400,335.643 176.400 C 335.447 176.400,335.174 175.950,335.036 175.400 C 334.898 174.850,334.608 174.400,334.392 174.400 C 334.177 174.400,334.000 174.040,334.000 173.600 C 334.000 173.160,333.840 172.800,333.643 172.800 C 333.447 172.800,333.174 172.350,333.036 171.800 C 332.898 171.250,332.608 170.800,332.392 170.800 C 332.177 170.800,332.000 170.530,332.000 170.200 C 332.000 169.870,331.856 169.600,331.680 169.600 C 331.505 169.600,331.129 168.958,330.845 168.174 C 330.561 167.390,330.075 166.650,329.765 166.531 C 329.454 166.412,329.200 165.989,329.200 165.591 C 329.200 165.192,328.990 164.797,328.733 164.711 C 328.430 164.610,328.202 162.985,328.081 160.069 C 327.980 157.602,327.740 155.486,327.548 155.368 C 327.357 155.250,327.200 153.723,327.200 151.976 C 327.200 150.229,327.043 148.800,326.851 148.800 C 326.659 148.800,326.371 145.560,326.211 141.600 C 326.051 137.640,325.758 134.400,325.560 134.400 C 325.362 134.400,325.200 132.791,325.200 130.824 C 325.200 128.857,325.020 127.136,324.800 127.000 C 324.580 126.864,324.397 126.088,324.394 125.276 C 324.385 123.229,322.603 121.600,320.372 121.600 C 319.984 121.600,319.607 121.465,319.533 121.300 C 319.296 120.765,316.900 119.600,316.038 119.600 C 315.577 119.600,315.200 119.420,315.200 119.200 C 315.200 118.980,314.840 118.800,314.400 118.800 C 313.960 118.800,313.600 118.622,313.600 118.405 C 313.600 118.187,312.880 117.894,312.000 117.754 C 311.120 117.613,310.400 117.341,310.400 117.149 C 310.400 116.957,310.040 116.800,309.600 116.800 C 309.160 116.800,308.800 116.620,308.800 116.400 C 308.800 116.180,308.602 116.000,308.360 116.000 C 308.119 116.000,307.309 115.730,306.560 115.400 C 305.812 115.070,304.588 114.530,303.840 114.200 C 303.091 113.870,302.281 113.600,302.040 113.600 C 301.798 113.600,301.600 113.420,301.600 113.200 C 301.600 112.980,301.150 112.800,300.600 112.800 C 300.050 112.800,299.600 112.620,299.600 112.400 C 299.600 112.180,299.240 112.000,298.800 112.000 C 298.360 112.000,298.000 111.822,298.000 111.605 C 298.000 111.387,297.280 111.094,296.400 110.954 C 295.520 110.813,294.800 110.585,294.800 110.447 C 294.800 110.308,294.215 109.949,293.500 109.648 C 292.785 109.347,291.677 108.853,291.039 108.550 C 290.400 108.248,289.635 108.000,289.339 108.000 C 289.042 108.000,288.800 107.820,288.800 107.600 C 288.800 107.380,288.494 107.200,288.120 107.200 C 287.454 107.200,282.400 102.303,282.400 101.658 C 282.400 101.479,281.905 100.864,281.300 100.291 C 280.695 99.719,279.984 99.014,279.719 98.725 C 279.455 98.436,279.005 97.984,278.719 97.719 C 277.893 96.954,277.200 96.058,277.200 95.754 C 277.200 95.600,275.940 94.246,274.400 92.746 C 272.860 91.245,271.600 89.874,271.600 89.698 C 271.600 89.523,270.655 88.354,269.500 87.100 C 268.345 85.846,266.770 84.078,266.000 83.171 C 265.230 82.263,264.381 81.314,264.114 81.061 C 263.847 80.807,263.397 80.384,263.114 80.119 C 262.317 79.373,261.600 78.459,261.600 78.188 C 261.600 76.887,257.258 75.335,256.600 76.400 C 256.464 76.620,255.733 76.800,254.976 76.800 C 254.219 76.800,253.600 76.980,253.600 77.200 C 253.600 77.420,252.891 77.600,252.024 77.600 C 251.157 77.600,250.342 77.770,250.214 77.977 C 250.086 78.184,248.722 78.478,247.182 78.629 C 245.642 78.781,244.286 79.061,244.168 79.253 C 244.049 79.444,243.333 79.600,242.576 79.600 C 241.819 79.600,241.200 79.759,241.200 79.953 C 241.200 80.147,239.850 80.433,238.200 80.587 C 236.550 80.742,235.200 81.033,235.200 81.234 C 235.200 81.435,234.480 81.600,233.600 81.600 C 232.720 81.600,232.000 81.765,232.000 81.966 C 232.000 82.167,230.650 82.458,229.000 82.613 C 227.350 82.767,226.000 83.053,226.000 83.247 C 226.000 83.441,225.385 83.600,224.633 83.600 C 223.882 83.600,223.201 83.796,223.121 84.036 C 223.029 84.312,221.516 84.473,219.000 84.473 C 216.484 84.473,214.971 84.312,214.879 84.036 C 214.799 83.796,214.118 83.600,213.367 83.600 C 212.615 83.600,212.000 83.441,212.000 83.247 C 212.000 83.053,210.650 82.767,209.000 82.613 C 207.350 82.458,206.000 82.167,206.000 81.966 C 206.000 81.765,205.280 81.600,204.400 81.600 C 203.520 81.600,202.800 81.435,202.800 81.234 C 202.800 81.033,201.450 80.742,199.800 80.587 C 198.150 80.433,196.800 80.147,196.800 79.953 C 196.800 79.759,196.170 79.600,195.400 79.600 C 194.630 79.600,194.000 79.446,194.000 79.257 C 194.000 79.069,192.699 78.794,191.109 78.646 C 189.519 78.498,188.043 78.203,187.829 77.989 C 187.615 77.775,186.756 77.600,185.920 77.600 C 185.084 77.600,184.400 77.420,184.400 77.200 C 184.400 76.980,183.770 76.800,183.000 76.800 C 182.230 76.800,181.600 76.620,181.600 76.400 C 181.600 75.676,178.984 75.967,178.175 76.781 M182.568 83.947 C 182.686 84.139,184.042 84.419,185.582 84.571 C 187.122 84.722,188.486 85.016,188.614 85.223 C 188.742 85.430,189.557 85.600,190.424 85.600 C 191.291 85.600,192.000 85.765,192.000 85.966 C 192.000 86.167,193.350 86.458,195.000 86.613 C 196.650 86.767,198.000 87.053,198.000 87.247 C 198.000 87.441,198.630 87.600,199.400 87.600 C 200.170 87.600,200.800 87.780,200.800 88.000 C 200.800 88.220,201.509 88.400,202.376 88.400 C 203.243 88.400,204.055 88.566,204.181 88.769 C 204.306 88.971,205.622 89.263,207.104 89.417 C 208.587 89.571,209.980 89.833,210.200 89.998 C 210.615 90.311,211.249 90.455,215.584 91.223 C 218.335 91.710,224.626 91.405,225.022 90.764 C 225.146 90.564,225.777 90.400,226.424 90.400 C 227.071 90.400,227.600 90.246,227.600 90.057 C 227.600 89.869,228.901 89.594,230.491 89.446 C 232.081 89.298,233.557 89.003,233.771 88.789 C 233.985 88.575,234.844 88.400,235.680 88.400 C 236.516 88.400,237.200 88.220,237.200 88.000 C 237.200 87.780,237.830 87.600,238.600 87.600 C 239.370 87.600,240.000 87.441,240.000 87.247 C 240.000 87.053,241.350 86.767,243.000 86.613 C 244.650 86.458,246.000 86.167,246.000 85.966 C 246.000 85.765,246.709 85.600,247.576 85.600 C 248.443 85.600,249.253 85.438,249.376 85.239 C 249.498 85.041,250.724 84.761,252.099 84.617 C 253.475 84.473,254.989 84.164,255.465 83.929 C 256.459 83.439,256.859 83.687,259.100 86.185 C 259.375 86.492,259.600 86.877,259.600 87.040 C 259.600 87.203,260.860 88.572,262.400 90.082 C 263.940 91.592,265.200 92.989,265.200 93.187 C 265.200 93.385,266.370 94.734,267.800 96.185 C 269.230 97.636,270.400 98.907,270.400 99.009 C 270.400 99.240,272.022 101.163,272.719 101.757 C 273.797 102.677,275.200 104.282,275.200 104.596 C 275.200 104.735,276.370 106.030,277.800 107.474 C 279.230 108.919,280.400 110.213,280.400 110.350 C 280.402 111.069,282.455 112.831,283.546 113.049 C 284.236 113.187,284.800 113.458,284.800 113.650 C 284.800 113.843,285.250 114.000,285.800 114.000 C 286.350 114.000,286.800 114.180,286.800 114.400 C 286.800 114.620,286.979 114.800,287.197 114.800 C 287.880 114.800,290.800 116.173,290.800 116.494 C 290.800 116.662,291.250 116.800,291.800 116.800 C 292.350 116.800,292.800 116.972,292.800 117.182 C 292.800 117.392,293.430 117.682,294.200 117.826 C 294.970 117.971,295.600 118.249,295.600 118.445 C 295.600 118.640,296.050 118.800,296.600 118.800 C 297.150 118.800,297.600 118.972,297.600 119.182 C 297.600 119.392,298.230 119.682,299.000 119.826 C 299.770 119.971,300.400 120.249,300.400 120.445 C 300.400 120.640,300.850 120.800,301.400 120.800 C 301.950 120.800,302.400 120.966,302.400 121.168 C 302.400 121.371,302.940 121.655,303.600 121.800 C 304.260 121.945,304.800 122.229,304.800 122.432 C 304.800 122.634,305.250 122.800,305.800 122.800 C 306.350 122.800,306.800 122.960,306.800 123.155 C 306.800 123.351,307.430 123.629,308.200 123.774 C 308.970 123.918,309.600 124.208,309.600 124.418 C 309.600 124.628,309.960 124.800,310.400 124.800 C 310.840 124.800,311.200 124.980,311.200 125.200 C 311.200 125.420,311.650 125.600,312.200 125.600 C 312.750 125.600,313.200 125.772,313.200 125.982 C 313.200 126.192,313.830 126.482,314.600 126.626 C 315.370 126.771,316.000 127.049,316.000 127.245 C 316.000 127.440,316.429 127.600,316.953 127.600 C 318.148 127.600,318.387 128.412,318.395 132.500 C 318.398 134.296,318.568 135.600,318.800 135.600 C 319.039 135.600,319.200 137.133,319.200 139.400 C 319.200 141.490,319.361 143.200,319.557 143.200 C 319.753 143.200,320.045 146.350,320.206 150.200 C 320.366 154.050,320.655 157.200,320.849 157.200 C 321.042 157.200,321.200 158.730,321.200 160.600 C 321.200 162.470,321.358 164.000,321.550 164.000 C 321.743 164.000,321.986 165.026,322.090 166.280 C 322.194 167.534,322.486 168.629,322.740 168.713 C 322.993 168.798,323.200 169.122,323.200 169.433 C 323.200 169.745,323.345 170.000,323.523 170.000 C 323.701 170.000,324.181 170.765,324.590 171.700 C 324.999 172.635,325.638 173.670,326.009 174.000 C 326.381 174.330,326.827 175.050,327.000 175.600 C 327.173 176.150,327.625 176.870,328.004 177.200 C 328.383 177.531,328.821 178.386,328.978 179.100 C 329.135 179.815,329.429 180.400,329.632 180.400 C 329.834 180.400,330.000 180.670,330.000 181.000 C 330.000 181.330,330.177 181.600,330.392 181.600 C 330.608 181.600,330.898 182.050,331.036 182.600 C 331.174 183.150,331.447 183.600,331.643 183.600 C 331.840 183.600,332.000 183.848,332.000 184.151 C 332.000 184.454,332.270 184.926,332.600 185.200 C 332.930 185.474,333.200 186.036,333.200 186.449 C 333.200 186.862,333.380 187.200,333.600 187.200 C 333.820 187.200,334.000 187.430,334.000 187.712 C 334.000 187.993,334.360 188.483,334.800 188.800 C 335.240 189.117,335.600 189.535,335.600 189.728 C 335.600 190.288,336.920 192.949,337.485 193.529 C 337.768 193.819,338.000 194.314,338.000 194.629 C 338.000 194.943,338.180 195.200,338.400 195.200 C 338.620 195.200,338.800 195.393,338.800 195.629 C 338.800 195.864,339.070 196.327,339.400 196.657 C 339.730 196.987,340.000 197.604,340.000 198.029 C 340.000 198.453,340.180 198.800,340.400 198.800 C 341.028 198.800,340.867 201.046,340.200 201.600 C 339.870 201.874,339.600 202.436,339.600 202.849 C 339.600 203.262,339.420 203.600,339.200 203.600 C 338.980 203.600,338.800 203.870,338.800 204.200 C 338.800 204.530,338.632 204.800,338.427 204.800 C 338.222 204.800,337.928 205.205,337.773 205.700 C 337.619 206.195,337.372 206.690,337.225 206.800 C 337.078 206.910,336.608 207.692,336.179 208.539 C 334.719 211.422,334.610 211.600,334.305 211.600 C 334.137 211.600,334.000 211.870,334.000 212.200 C 334.000 212.530,333.823 212.800,333.608 212.800 C 333.392 212.800,333.102 213.250,332.964 213.800 C 332.826 214.350,332.553 214.800,332.357 214.800 C 332.160 214.800,332.000 215.160,332.000 215.600 C 332.000 216.040,331.823 216.400,331.608 216.400 C 331.392 216.400,331.102 216.850,330.964 217.400 C 330.826 217.950,330.553 218.400,330.357 218.400 C 330.160 218.400,330.000 218.670,330.000 219.000 C 330.000 219.330,329.820 219.600,329.600 219.600 C 329.380 219.600,329.200 219.966,329.200 220.413 C 329.200 220.859,328.930 221.329,328.600 221.455 C 328.270 221.582,328.000 222.026,328.000 222.443 C 328.000 222.859,327.840 223.200,327.643 223.200 C 327.447 223.200,327.174 223.650,327.036 224.200 C 326.898 224.750,326.608 225.200,326.392 225.200 C 326.177 225.200,326.000 225.470,326.000 225.800 C 326.000 226.130,325.820 226.400,325.600 226.400 C 325.380 226.400,325.200 226.648,325.200 226.951 C 325.200 227.254,324.930 227.726,324.600 228.000 C 324.270 228.274,324.000 228.836,324.000 229.249 C 324.000 229.662,323.820 230.000,323.600 230.000 C 323.380 230.000,323.200 230.193,323.200 230.429 C 323.200 230.664,322.930 231.127,322.600 231.457 C 322.229 231.828,322.000 232.810,322.000 234.029 C 322.000 235.113,321.820 236.000,321.600 236.000 C 321.365 236.000,321.200 237.400,321.200 239.400 C 321.200 241.270,321.042 242.800,320.849 242.800 C 320.655 242.800,320.366 245.950,320.206 249.800 C 320.045 253.650,319.753 256.800,319.557 256.800 C 319.361 256.800,319.200 258.319,319.200 260.176 C 319.200 262.033,319.020 263.664,318.800 263.800 C 318.580 263.936,318.400 265.617,318.400 267.535 C 318.400 271.157,317.837 272.400,316.195 272.400 C 315.868 272.400,315.600 272.580,315.600 272.800 C 315.600 273.020,315.251 273.200,314.824 273.200 C 314.397 273.200,313.945 273.366,313.819 273.569 C 313.694 273.772,313.053 274.057,312.395 274.201 C 311.738 274.345,311.200 274.629,311.200 274.832 C 311.200 275.034,310.750 275.200,310.200 275.200 C 309.650 275.200,309.200 275.360,309.200 275.555 C 309.200 275.751,308.570 276.029,307.800 276.174 C 307.030 276.318,306.400 276.608,306.400 276.818 C 306.400 277.028,306.040 277.200,305.600 277.200 C 305.160 277.200,304.800 277.357,304.800 277.549 C 304.800 277.741,304.080 278.013,303.200 278.154 C 302.320 278.294,301.600 278.587,301.600 278.805 C 301.600 279.022,301.330 279.200,301.000 279.200 C 300.670 279.200,300.400 279.380,300.400 279.600 C 300.400 279.820,300.041 280.000,299.603 280.000 C 298.617 280.000,295.600 281.277,295.600 281.694 C 295.600 281.862,295.150 282.000,294.600 282.000 C 294.050 282.000,293.600 282.160,293.600 282.355 C 293.600 282.551,292.970 282.829,292.200 282.974 C 291.430 283.118,290.800 283.408,290.800 283.618 C 290.800 283.828,290.350 284.000,289.800 284.000 C 289.250 284.000,288.800 284.160,288.800 284.355 C 288.800 284.551,288.170 284.829,287.400 284.974 C 286.630 285.118,286.000 285.408,286.000 285.618 C 286.000 285.828,285.730 286.000,285.400 286.000 C 285.070 286.000,284.800 286.180,284.800 286.400 C 284.800 286.620,284.361 286.800,283.824 286.800 C 282.848 286.800,279.200 289.957,279.200 290.801 C 279.200 291.024,278.030 292.354,276.600 293.756 C 275.170 295.158,274.000 296.597,274.000 296.953 C 274.000 297.309,273.828 297.600,273.618 297.600 C 273.408 297.600,272.823 298.041,272.318 298.579 C 271.813 299.118,270.725 300.269,269.900 301.138 C 269.075 302.007,268.400 302.840,268.400 302.991 C 268.400 303.141,267.320 304.344,266.000 305.664 C 264.680 306.984,263.600 308.231,263.600 308.435 C 263.600 308.640,262.430 309.954,261.000 311.356 C 259.570 312.758,258.400 314.197,258.400 314.553 C 258.400 314.909,258.233 315.200,258.029 315.200 C 257.824 315.200,257.358 315.499,256.992 315.865 C 256.525 316.332,256.244 316.395,256.047 316.075 C 255.892 315.825,254.468 315.500,252.883 315.353 C 251.297 315.206,250.000 314.931,250.000 314.743 C 250.000 314.554,249.370 314.400,248.600 314.400 C 247.830 314.400,247.200 314.241,247.200 314.047 C 247.200 313.853,245.850 313.567,244.200 313.413 C 242.550 313.258,241.200 312.967,241.200 312.766 C 241.200 312.565,240.480 312.400,239.600 312.400 C 238.720 312.400,238.000 312.235,238.000 312.034 C 238.000 311.833,236.650 311.542,235.000 311.387 C 233.350 311.233,232.000 310.947,232.000 310.753 C 232.000 310.559,231.381 310.400,230.624 310.400 C 229.867 310.400,229.151 310.244,229.032 310.053 C 228.914 309.861,227.558 309.581,226.018 309.429 C 224.478 309.278,223.114 308.984,222.986 308.777 C 222.691 308.300,215.600 308.277,215.600 308.753 C 215.600 308.947,214.250 309.233,212.600 309.387 C 210.950 309.542,209.600 309.833,209.600 310.034 C 209.600 310.235,208.805 310.400,207.833 310.400 C 206.862 310.400,206.007 310.575,205.933 310.789 C 205.860 311.003,204.495 311.299,202.900 311.446 C 201.305 311.594,200.000 311.869,200.000 312.057 C 200.000 312.246,199.370 312.400,198.600 312.400 C 197.830 312.400,197.200 312.559,197.200 312.753 C 197.200 312.947,195.850 313.233,194.200 313.387 C 192.550 313.542,191.200 313.833,191.200 314.034 C 191.200 314.235,190.480 314.400,189.600 314.400 C 188.720 314.400,188.000 314.562,188.000 314.759 C 188.000 314.957,186.695 315.247,185.100 315.404 C 183.505 315.561,181.975 315.871,181.700 316.093 C 181.353 316.375,181.200 316.350,181.200 316.013 C 181.200 315.747,179.940 314.301,178.400 312.800 C 176.860 311.299,175.600 309.952,175.600 309.807 C 175.600 309.662,175.375 309.296,175.100 308.994 C 174.825 308.691,173.610 307.352,172.400 306.018 C 171.190 304.683,169.165 302.501,167.900 301.168 C 166.635 299.836,165.600 298.586,165.600 298.392 C 165.600 298.198,164.340 296.762,162.800 295.200 C 161.260 293.638,160.000 292.272,160.000 292.164 C 160.000 291.510,155.241 286.800,154.581 286.800 C 154.261 286.800,154.000 286.620,154.000 286.400 C 154.000 286.180,153.550 286.000,153.000 286.000 C 152.450 286.000,152.000 285.840,152.000 285.645 C 152.000 285.449,151.370 285.171,150.600 285.026 C 149.830 284.882,149.200 284.592,149.200 284.382 C 149.200 284.172,148.750 284.000,148.200 284.000 C 147.650 284.000,147.200 283.828,147.200 283.618 C 147.200 283.408,146.570 283.118,145.800 282.974 C 145.030 282.829,144.400 282.551,144.400 282.355 C 144.400 282.160,144.130 282.000,143.800 282.000 C 143.470 282.000,143.200 281.820,143.200 281.600 C 143.200 281.380,142.761 281.200,142.224 281.200 C 141.687 281.200,141.145 281.034,141.019 280.831 C 140.894 280.628,140.253 280.343,139.595 280.199 C 138.938 280.055,138.400 279.771,138.400 279.568 C 138.400 279.366,137.950 279.200,137.400 279.200 C 136.850 279.200,136.400 279.028,136.400 278.818 C 136.400 278.608,135.770 278.318,135.000 278.174 C 134.230 278.029,133.600 277.751,133.600 277.555 C 133.600 277.360,133.150 277.200,132.600 277.200 C 132.050 277.200,131.600 277.028,131.600 276.818 C 131.600 276.608,130.970 276.318,130.200 276.174 C 129.430 276.029,128.800 275.751,128.800 275.555 C 128.800 275.360,128.350 275.200,127.800 275.200 C 127.250 275.200,126.800 275.028,126.800 274.818 C 126.800 274.608,126.170 274.318,125.400 274.174 C 124.630 274.029,124.000 273.751,124.000 273.555 C 124.000 273.360,123.730 273.200,123.400 273.200 C 123.070 273.200,122.800 273.020,122.800 272.800 C 122.800 272.580,122.427 272.400,121.971 272.400 C 120.279 272.400,119.868 271.388,119.677 266.757 C 119.578 264.361,119.340 262.400,119.149 262.400 C 118.957 262.400,118.800 260.870,118.800 259.000 C 118.800 257.130,118.645 255.600,118.455 255.600 C 118.266 255.600,117.982 252.495,117.824 248.700 C 117.667 244.905,117.372 241.629,117.169 241.420 C 116.966 241.211,116.800 239.456,116.800 237.520 C 116.800 235.440,116.636 234.000,116.400 234.000 C 116.180 234.000,116.000 233.550,116.000 233.000 C 116.000 232.450,115.820 232.000,115.600 232.000 C 115.380 232.000,115.200 231.634,115.200 231.187 C 115.200 230.741,114.930 230.271,114.600 230.145 C 114.270 230.018,114.000 229.574,114.000 229.157 C 114.000 228.741,113.840 228.400,113.643 228.400 C 113.447 228.400,113.174 227.950,113.036 227.400 C 112.898 226.850,112.608 226.400,112.392 226.400 C 112.177 226.400,112.000 226.130,112.000 225.800 C 112.000 225.470,111.820 225.200,111.600 225.200 C 111.380 225.200,111.200 224.834,111.200 224.387 C 111.200 223.941,110.930 223.471,110.600 223.345 C 110.270 223.218,110.000 222.774,110.000 222.357 C 110.000 221.941,109.840 221.600,109.643 221.600 C 109.447 221.600,109.184 221.191,109.059 220.692 C 108.934 220.193,108.464 219.390,108.015 218.909 C 107.567 218.427,107.200 217.756,107.200 217.417 C 107.200 217.078,107.040 216.800,106.843 216.800 C 106.647 216.800,106.374 216.350,106.236 215.800 C 106.098 215.250,105.808 214.800,105.592 214.800 C 105.377 214.800,105.200 214.530,105.200 214.200 C 105.200 213.870,105.040 213.600,104.843 213.600 C 104.647 213.600,104.374 213.150,104.236 212.600 C 104.098 212.050,103.808 211.600,103.592 211.600 C 103.377 211.600,103.200 211.240,103.200 210.800 C 103.200 210.360,103.040 210.000,102.843 210.000 C 102.647 210.000,102.365 209.516,102.217 208.924 C 102.068 208.332,101.643 207.567,101.272 207.224 C 100.901 206.881,100.285 205.925,99.905 205.100 C 99.524 204.275,99.030 203.600,98.806 203.600 C 98.583 203.600,98.400 203.274,98.400 202.876 C 98.400 202.479,98.136 201.804,97.813 201.376 C 97.139 200.486,97.016 198.961,97.589 198.607 C 97.803 198.474,98.292 197.699,98.674 196.883 C 99.057 196.067,99.601 195.162,99.885 194.871 C 100.168 194.581,100.400 194.086,100.400 193.771 C 100.400 193.457,100.580 193.200,100.800 193.200 C 101.020 193.200,101.200 192.930,101.200 192.600 C 101.200 192.270,101.377 192.000,101.592 192.000 C 101.808 192.000,102.098 191.550,102.236 191.000 C 102.374 190.450,102.647 190.000,102.843 190.000 C 103.040 190.000,103.200 189.640,103.200 189.200 C 103.200 188.760,103.360 188.400,103.557 188.400 C 103.753 188.400,104.026 187.950,104.164 187.400 C 104.302 186.850,104.592 186.400,104.808 186.400 C 105.023 186.400,105.200 186.130,105.200 185.800 C 105.200 185.470,105.380 185.200,105.600 185.200 C 105.820 185.200,106.000 184.862,106.000 184.449 C 106.000 184.036,106.270 183.474,106.600 183.200 C 106.930 182.926,107.200 182.454,107.200 182.151 C 107.200 181.848,107.380 181.600,107.600 181.600 C 107.820 181.600,108.000 181.330,108.000 181.000 C 108.000 180.670,108.177 180.400,108.392 180.400 C 108.608 180.400,108.898 179.950,109.036 179.400 C 109.174 178.850,109.447 178.400,109.643 178.400 C 109.840 178.400,110.000 178.040,110.000 177.600 C 110.000 177.160,110.160 176.800,110.357 176.800 C 110.553 176.800,110.826 176.350,110.964 175.800 C 111.102 175.250,111.392 174.800,111.608 174.800 C 111.823 174.800,112.000 174.530,112.000 174.200 C 112.000 173.870,112.180 173.600,112.400 173.600 C 112.620 173.600,112.800 173.343,112.800 173.029 C 112.800 172.714,113.037 172.219,113.328 171.929 C 113.618 171.638,114.192 170.635,114.605 169.700 C 115.017 168.765,115.499 168.000,115.677 168.000 C 115.855 168.000,116.000 167.460,116.000 166.800 C 116.000 166.140,116.180 165.600,116.400 165.600 C 116.635 165.600,116.800 164.227,116.800 162.280 C 116.800 160.454,116.966 158.789,117.169 158.580 C 117.372 158.371,117.667 155.095,117.824 151.300 C 117.982 147.505,118.266 144.400,118.455 144.400 C 118.645 144.400,118.800 142.870,118.800 141.000 C 118.800 139.000,118.965 137.600,119.200 137.600 C 119.433 137.600,119.620 136.135,119.647 134.100 C 119.707 129.711,119.990 128.402,121.000 127.843 C 121.440 127.599,121.890 127.309,122.000 127.198 C 122.110 127.087,123.235 126.653,124.500 126.233 C 125.765 125.814,126.800 125.319,126.800 125.135 C 126.800 124.951,127.160 124.800,127.600 124.800 C 128.040 124.800,128.400 124.622,128.400 124.405 C 128.400 124.187,129.120 123.894,130.000 123.754 C 130.880 123.613,131.600 123.341,131.600 123.149 C 131.600 122.957,131.870 122.800,132.200 122.800 C 132.530 122.800,132.800 122.640,132.800 122.445 C 132.800 122.249,133.452 121.967,134.249 121.817 C 135.616 121.561,137.155 120.892,137.600 120.362 C 137.710 120.230,138.340 119.995,139.000 119.839 C 140.591 119.463,142.400 118.669,142.400 118.347 C 142.400 118.205,143.030 117.971,143.800 117.826 C 144.570 117.682,145.200 117.392,145.200 117.182 C 145.200 116.972,145.650 116.800,146.200 116.800 C 146.750 116.800,147.200 116.620,147.200 116.400 C 147.200 116.180,147.470 116.000,147.800 116.000 C 148.130 116.000,148.400 115.840,148.400 115.645 C 148.400 115.449,149.052 115.167,149.849 115.017 C 151.216 114.761,152.755 114.092,153.200 113.562 C 153.310 113.430,153.917 113.196,154.549 113.042 C 155.584 112.788,158.763 109.835,158.789 109.103 C 158.795 108.940,159.970 107.653,161.400 106.244 C 162.830 104.835,164.000 103.406,164.000 103.068 C 164.000 102.730,164.360 102.340,164.800 102.200 C 165.240 102.060,165.600 101.799,165.600 101.620 C 165.600 101.441,166.320 100.574,167.200 99.694 C 168.080 98.814,168.800 97.984,168.800 97.850 C 168.800 97.716,170.060 96.306,171.600 94.716 C 173.140 93.126,174.400 91.705,174.400 91.558 C 174.400 91.411,175.472 90.179,176.781 88.819 C 178.091 87.460,179.270 86.009,179.402 85.594 C 179.533 85.180,179.992 84.730,180.420 84.594 C 180.849 84.457,181.200 84.178,181.200 83.973 C 181.200 83.502,182.280 83.482,182.568 83.947 M179.200 149.600 C 179.200 149.820,178.570 150.000,177.800 150.000 C 177.030 150.000,176.400 150.172,176.400 150.382 C 176.400 150.592,175.770 150.882,175.000 151.026 C 174.230 151.171,173.600 151.449,173.600 151.645 C 173.600 151.840,173.330 152.000,173.000 152.000 C 172.670 152.000,172.400 152.168,172.400 152.373 C 172.400 152.578,172.005 152.871,171.523 153.024 C 170.436 153.369,165.600 158.223,165.600 158.969 C 165.600 159.269,165.327 159.619,164.994 159.747 C 164.661 159.875,164.211 160.389,163.995 160.890 C 163.546 161.930,162.715 163.305,162.358 163.600 C 162.224 163.710,161.991 164.475,161.840 165.300 C 161.688 166.125,161.392 166.800,161.182 166.800 C 160.972 166.800,160.800 167.415,160.800 168.167 C 160.800 168.918,160.627 169.593,160.416 169.667 C 160.205 169.740,159.909 171.285,159.759 173.100 C 159.608 174.915,159.331 176.400,159.142 176.400 C 158.954 176.400,158.800 179.100,158.800 182.400 C 158.800 185.700,158.953 188.400,159.140 188.400 C 159.327 188.400,159.598 190.065,159.743 192.100 C 159.887 194.135,160.184 195.860,160.402 195.933 C 160.621 196.007,160.800 196.502,160.800 197.033 C 160.800 197.565,160.957 198.000,161.149 198.000 C 161.341 198.000,161.613 198.720,161.754 199.600 C 161.894 200.480,162.187 201.200,162.405 201.200 C 162.622 201.200,162.800 201.560,162.800 202.000 C 162.800 202.440,162.960 202.800,163.157 202.800 C 163.353 202.800,163.626 203.250,163.764 203.800 C 163.902 204.350,164.192 204.800,164.408 204.800 C 164.623 204.800,164.800 204.989,164.800 205.219 C 164.800 205.902,170.579 211.476,171.632 211.809 C 172.164 211.977,172.891 212.449,173.247 212.857 C 173.603 213.266,174.242 213.600,174.667 213.600 C 175.092 213.600,175.643 213.803,175.891 214.051 C 176.140 214.300,177.616 214.594,179.171 214.705 C 180.727 214.816,182.000 215.063,182.000 215.254 C 182.000 215.444,182.990 215.600,184.200 215.600 C 185.410 215.600,186.400 215.446,186.400 215.258 C 186.400 215.070,187.615 214.808,189.100 214.676 C 191.845 214.432,194.400 213.679,194.400 213.112 C 194.400 212.941,194.760 212.800,195.200 212.800 C 195.640 212.800,196.000 212.640,196.000 212.443 C 196.000 212.247,196.450 211.974,197.000 211.836 C 197.550 211.698,198.000 211.408,198.000 211.192 C 198.000 210.977,198.270 210.800,198.600 210.800 C 198.930 210.800,199.200 210.632,199.200 210.427 C 199.200 210.222,199.551 209.943,199.980 209.806 C 200.408 209.670,200.867 209.217,201.000 208.800 C 201.133 208.383,201.583 207.933,202.000 207.800 C 202.417 207.667,202.884 207.163,203.037 206.680 C 203.189 206.196,203.649 205.509,204.057 205.153 C 204.466 204.797,204.800 204.232,204.800 203.896 C 204.800 203.560,205.070 203.182,205.400 203.055 C 205.730 202.929,206.000 202.459,206.000 202.013 C 206.000 201.566,206.136 201.200,206.302 201.200 C 206.731 201.200,207.599 199.117,207.873 197.430 C 208.000 196.643,208.261 196.000,208.452 196.000 C 208.644 196.000,208.800 195.385,208.800 194.633 C 208.800 193.882,209.025 193.192,209.300 193.100 C 209.685 192.972,209.800 190.248,209.800 181.287 C 209.800 172.502,209.677 169.517,209.300 169.140 C 209.025 168.865,208.800 168.226,208.800 167.720 C 208.800 167.214,208.644 166.800,208.452 166.800 C 208.261 166.800,208.000 166.157,207.873 165.370 C 207.599 163.683,206.731 161.600,206.302 161.600 C 206.136 161.600,206.000 161.234,206.000 160.787 C 206.000 160.341,205.730 159.871,205.400 159.745 C 205.070 159.618,204.800 159.315,204.800 159.071 C 204.800 158.828,204.444 158.262,204.009 157.814 C 203.574 157.366,202.306 156.055,201.190 154.900 C 200.075 153.745,198.940 152.800,198.669 152.800 C 198.398 152.800,197.914 152.435,197.592 151.989 C 197.267 151.538,196.342 151.072,195.504 150.938 C 194.677 150.806,194.000 150.541,194.000 150.349 C 194.000 150.157,193.561 150.000,193.024 150.000 C 192.487 150.000,191.936 149.820,191.800 149.600 C 191.652 149.361,189.063 149.200,185.376 149.200 C 181.525 149.200,179.200 149.351,179.200 149.600 M244.500 149.798 C 244.225 150.111,244.000 150.554,244.000 150.783 C 244.000 151.012,243.823 151.200,243.608 151.200 C 243.392 151.200,243.102 151.650,242.964 152.200 C 242.826 152.750,242.553 153.200,242.357 153.200 C 242.160 153.200,242.000 153.560,242.000 154.000 C 242.000 154.440,241.840 154.800,241.643 154.800 C 241.447 154.800,241.174 155.250,241.036 155.800 C 240.898 156.350,240.608 156.800,240.392 156.800 C 240.177 156.800,240.000 157.070,240.000 157.400 C 240.000 157.730,239.843 158.000,239.650 158.000 C 239.457 158.000,239.187 158.564,239.049 159.254 C 238.911 159.943,238.484 160.798,238.099 161.154 C 237.281 161.910,236.000 164.122,236.000 164.778 C 236.000 165.029,235.633 165.627,235.185 166.109 C 234.736 166.590,234.266 167.393,234.141 167.892 C 234.016 168.391,233.753 168.800,233.557 168.800 C 233.360 168.800,233.200 169.141,233.200 169.557 C 233.200 169.974,232.930 170.418,232.600 170.545 C 232.270 170.671,232.000 171.141,232.000 171.587 C 232.000 172.034,231.820 172.400,231.600 172.400 C 231.380 172.400,231.200 172.670,231.200 173.000 C 231.200 173.330,231.034 173.600,230.832 173.600 C 230.629 173.600,230.335 174.185,230.178 174.900 C 230.021 175.614,229.557 176.491,229.146 176.847 C 228.736 177.203,228.400 177.698,228.400 177.947 C 228.400 178.196,228.234 178.400,228.032 178.400 C 227.829 178.400,227.538 178.970,227.385 179.667 C 227.232 180.363,226.761 181.305,226.338 181.759 C 225.915 182.213,225.466 182.993,225.341 183.492 C 225.216 183.991,224.953 184.400,224.757 184.400 C 224.560 184.400,224.400 184.741,224.400 185.157 C 224.400 185.574,224.130 186.018,223.800 186.145 C 223.470 186.271,223.200 186.741,223.200 187.187 C 223.200 187.634,223.020 188.000,222.800 188.000 C 222.580 188.000,222.400 188.270,222.400 188.600 C 222.400 188.930,222.220 189.200,222.000 189.200 C 221.780 189.200,221.600 189.457,221.600 189.771 C 221.600 190.086,221.364 190.581,221.075 190.871 C 220.787 191.162,220.293 191.985,219.978 192.700 C 219.663 193.415,219.269 194.000,219.102 194.000 C 218.936 194.000,218.800 194.257,218.800 194.571 C 218.800 194.886,218.568 195.381,218.285 195.671 C 217.770 196.200,216.400 198.893,216.400 199.377 C 216.400 199.518,216.028 200.031,215.573 200.517 C 215.117 201.003,214.645 201.895,214.523 202.500 C 214.400 203.105,214.143 203.600,213.950 203.600 C 213.757 203.600,213.600 203.870,213.600 204.200 C 213.600 204.530,213.423 204.800,213.208 204.800 C 212.992 204.800,212.702 205.250,212.564 205.800 C 212.426 206.350,212.186 206.800,212.031 206.800 C 211.876 206.800,211.502 207.430,211.200 208.200 C 210.898 208.970,210.504 209.600,210.325 209.600 C 210.146 209.600,210.000 209.857,210.000 210.171 C 210.000 210.486,209.768 210.981,209.485 211.271 C 208.920 211.851,207.600 214.512,207.600 215.072 C 207.600 215.265,207.247 215.678,206.815 215.989 C 206.383 216.301,205.919 217.060,205.783 217.678 C 205.647 218.295,205.371 218.800,205.168 218.800 C 204.966 218.800,204.800 219.160,204.800 219.600 C 204.800 220.040,204.623 220.400,204.408 220.400 C 204.192 220.400,203.902 220.850,203.764 221.400 C 203.626 221.950,203.353 222.400,203.157 222.400 C 202.960 222.400,202.800 222.670,202.800 223.000 C 202.800 223.330,202.620 223.600,202.400 223.600 C 202.180 223.600,202.000 223.960,202.000 224.400 C 202.000 224.840,201.823 225.200,201.608 225.200 C 201.392 225.200,201.102 225.650,200.964 226.200 C 200.826 226.750,200.553 227.200,200.357 227.200 C 200.160 227.200,200.000 227.470,200.000 227.800 C 200.000 228.130,199.820 228.400,199.600 228.400 C 199.380 228.400,199.200 228.738,199.200 229.151 C 199.200 229.564,198.930 230.126,198.600 230.400 C 198.270 230.674,198.000 231.146,198.000 231.449 C 198.000 231.752,197.840 232.000,197.643 232.000 C 197.447 232.000,197.170 232.465,197.027 233.034 C 196.884 233.603,196.403 234.458,195.956 234.934 C 195.510 235.410,195.045 236.295,194.923 236.900 C 194.800 237.505,194.543 238.000,194.350 238.000 C 194.158 238.000,194.000 238.270,194.000 238.600 C 194.000 238.930,193.820 239.200,193.600 239.200 C 193.380 239.200,193.200 239.560,193.200 240.000 C 193.200 240.440,193.023 240.800,192.808 240.800 C 192.592 240.800,192.302 241.250,192.164 241.800 C 192.026 242.350,191.753 242.800,191.557 242.800 C 191.360 242.800,191.200 243.070,191.200 243.400 C 191.200 243.730,191.040 244.000,190.843 244.000 C 190.647 244.000,190.374 244.450,190.236 245.000 C 190.098 245.550,189.808 246.000,189.592 246.000 C 189.377 246.000,189.200 246.360,189.200 246.800 C 189.200 247.240,189.040 247.600,188.843 247.600 C 188.647 247.600,188.370 248.065,188.227 248.634 C 188.084 249.203,187.603 250.058,187.156 250.534 C 186.710 251.010,186.245 251.895,186.123 252.500 C 186.000 253.105,185.743 253.600,185.550 253.600 C 185.358 253.600,185.200 253.788,185.200 254.017 C 185.200 254.246,184.828 254.831,184.373 255.317 C 183.917 255.803,183.445 256.695,183.323 257.300 C 183.200 257.905,182.942 258.400,182.750 258.400 C 182.558 258.400,182.400 258.670,182.400 259.000 C 182.400 259.503,183.248 259.600,187.629 259.600 C 193.302 259.600,193.723 259.457,194.245 257.348 C 194.401 256.717,194.860 255.965,195.265 255.677 C 195.669 255.390,196.000 254.895,196.000 254.577 C 196.000 254.260,196.160 254.000,196.357 254.000 C 196.553 254.000,196.830 253.535,196.973 252.966 C 197.116 252.397,197.597 251.542,198.044 251.066 C 198.490 250.590,198.955 249.705,199.077 249.100 C 199.200 248.495,199.458 248.000,199.650 248.000 C 199.843 248.000,200.000 247.730,200.000 247.400 C 200.000 247.070,200.177 246.800,200.392 246.800 C 200.608 246.800,200.898 246.350,201.036 245.800 C 201.174 245.250,201.447 244.800,201.643 244.800 C 201.840 244.800,202.000 244.440,202.000 244.000 C 202.000 243.560,202.160 243.200,202.357 243.200 C 202.553 243.200,202.826 242.750,202.964 242.200 C 203.102 241.650,203.392 241.200,203.608 241.200 C 203.823 241.200,204.000 240.930,204.000 240.600 C 204.000 240.270,204.180 240.000,204.400 240.000 C 204.620 240.000,204.800 239.640,204.800 239.200 C 204.800 238.760,204.960 238.400,205.157 238.400 C 205.353 238.400,205.626 237.950,205.764 237.400 C 205.902 236.850,206.192 236.400,206.408 236.400 C 206.623 236.400,206.800 236.130,206.800 235.800 C 206.800 235.470,206.966 235.200,207.168 235.200 C 207.371 235.200,207.665 234.615,207.822 233.900 C 207.979 233.186,208.431 232.320,208.827 231.977 C 209.223 231.633,209.668 230.868,209.817 230.276 C 209.965 229.684,210.247 229.200,210.443 229.200 C 210.640 229.200,210.800 228.840,210.800 228.400 C 210.800 227.960,210.960 227.600,211.157 227.600 C 211.353 227.600,211.626 227.150,211.764 226.600 C 211.902 226.050,212.192 225.600,212.408 225.600 C 212.623 225.600,212.800 225.330,212.800 225.000 C 212.800 224.670,212.943 224.400,213.118 224.400 C 213.293 224.400,213.770 223.590,214.178 222.600 C 214.587 221.610,215.073 220.800,215.260 220.800 C 215.447 220.800,215.600 220.530,215.600 220.200 C 215.600 219.870,215.766 219.600,215.968 219.600 C 216.171 219.600,216.465 219.015,216.622 218.300 C 216.779 217.585,217.229 216.775,217.622 216.500 C 218.015 216.224,218.455 215.459,218.600 214.800 C 218.745 214.140,219.029 213.600,219.232 213.600 C 219.434 213.600,219.600 213.259,219.600 212.843 C 219.600 212.426,219.870 211.982,220.200 211.855 C 220.530 211.729,220.800 211.259,220.800 210.813 C 220.800 210.366,220.980 210.000,221.200 210.000 C 221.420 210.000,221.600 209.730,221.600 209.400 C 221.600 209.070,221.737 208.800,221.905 208.800 C 222.230 208.800,222.529 208.303,223.794 205.659 C 224.231 204.747,224.726 204.000,224.894 204.000 C 225.062 204.000,225.200 203.743,225.200 203.429 C 225.200 203.114,225.432 202.619,225.715 202.329 C 226.280 201.749,227.600 199.088,227.600 198.528 C 227.600 198.335,227.959 197.918,228.398 197.601 C 228.837 197.285,229.307 196.435,229.443 195.713 C 229.578 194.991,229.849 194.400,230.045 194.400 C 230.240 194.400,230.400 194.130,230.400 193.800 C 230.400 193.470,230.580 193.200,230.800 193.200 C 231.020 193.200,231.200 192.930,231.200 192.600 C 231.200 192.270,231.377 192.000,231.592 192.000 C 231.808 192.000,232.098 191.550,232.236 191.000 C 232.374 190.450,232.647 190.000,232.843 190.000 C 233.040 190.000,233.200 189.640,233.200 189.200 C 233.200 188.760,233.380 188.400,233.600 188.400 C 233.820 188.400,234.000 188.143,234.000 187.829 C 234.000 187.514,234.232 187.019,234.515 186.729 C 235.080 186.149,236.400 183.488,236.400 182.928 C 236.400 182.735,236.753 182.322,237.185 182.011 C 237.617 181.699,238.081 180.940,238.217 180.322 C 238.353 179.705,238.629 179.200,238.832 179.200 C 239.034 179.200,239.200 178.922,239.200 178.583 C 239.200 178.244,239.567 177.573,240.015 177.091 C 240.464 176.610,240.934 175.807,241.059 175.308 C 241.184 174.809,241.447 174.400,241.643 174.400 C 241.840 174.400,242.000 174.059,242.000 173.643 C 242.000 173.226,242.270 172.782,242.600 172.655 C 242.930 172.529,243.200 172.059,243.200 171.613 C 243.200 171.166,243.380 170.800,243.600 170.800 C 243.820 170.800,244.000 170.530,244.000 170.200 C 244.000 169.870,244.180 169.600,244.400 169.600 C 244.620 169.600,244.800 169.234,244.800 168.787 C 244.800 168.341,245.070 167.871,245.400 167.745 C 245.730 167.618,246.000 167.174,246.000 166.757 C 246.000 166.341,246.160 166.000,246.357 166.000 C 246.553 166.000,246.835 165.516,246.983 164.924 C 247.132 164.332,247.566 163.567,247.947 163.224 C 248.673 162.571,250.000 159.996,250.000 159.240 C 250.000 158.998,250.180 158.800,250.400 158.800 C 250.620 158.800,250.800 158.459,250.800 158.043 C 250.800 157.626,251.070 157.182,251.400 157.055 C 251.730 156.929,252.000 156.459,252.000 156.013 C 252.000 155.566,252.180 155.200,252.400 155.200 C 252.620 155.200,252.800 154.930,252.800 154.600 C 252.800 154.270,252.960 154.000,253.157 154.000 C 253.353 154.000,253.626 153.550,253.764 153.000 C 253.902 152.450,254.192 152.000,254.408 152.000 C 254.623 152.000,254.800 151.640,254.800 151.200 C 254.800 150.760,254.980 150.400,255.200 150.400 C 255.420 150.400,255.600 150.130,255.600 149.800 C 255.600 148.941,245.256 148.940,244.500 149.798 M188.333 159.637 C 188.407 159.837,188.702 160.000,188.990 160.000 C 189.691 160.000,194.000 164.338,194.000 165.043 C 194.000 165.350,194.178 165.600,194.395 165.600 C 194.613 165.600,194.906 166.320,195.046 167.200 C 195.187 168.080,195.459 168.800,195.651 168.800 C 195.843 168.800,196.000 169.235,196.000 169.767 C 196.000 170.298,196.225 170.808,196.500 170.900 C 196.884 171.028,197.000 173.609,197.000 182.000 C 197.000 190.391,196.884 192.972,196.500 193.100 C 196.225 193.192,196.000 193.702,196.000 194.233 C 196.000 194.765,195.840 195.200,195.645 195.200 C 195.450 195.200,195.169 196.010,195.021 197.000 C 194.872 197.990,194.582 198.800,194.375 198.800 C 194.169 198.800,194.000 198.984,194.000 199.209 C 194.000 199.881,189.739 204.000,189.043 204.000 C 188.689 204.000,188.400 204.180,188.400 204.400 C 188.400 204.620,187.950 204.800,187.400 204.800 C 186.850 204.800,186.400 204.980,186.400 205.200 C 186.400 205.420,185.680 205.600,184.800 205.600 C 183.920 205.600,183.200 205.420,183.200 205.200 C 183.200 204.980,182.795 204.787,182.300 204.771 C 181.805 204.755,180.860 204.397,180.200 203.975 C 179.540 203.554,178.730 203.084,178.400 202.932 C 177.593 202.560,176.400 201.185,176.400 200.627 C 176.400 200.379,176.047 199.922,175.615 199.611 C 175.183 199.299,174.719 198.540,174.583 197.922 C 174.447 197.305,174.171 196.800,173.968 196.800 C 173.766 196.800,173.600 196.350,173.600 195.800 C 173.600 195.250,173.434 194.800,173.232 194.800 C 173.029 194.800,172.751 193.585,172.613 192.100 C 172.475 190.615,172.191 189.087,171.981 188.705 C 171.508 187.844,171.471 176.800,171.941 176.800 C 172.129 176.800,172.400 175.413,172.543 173.718 C 172.686 172.023,172.983 170.457,173.202 170.238 C 173.421 170.019,173.600 169.426,173.600 168.920 C 173.600 168.414,173.766 168.000,173.968 168.000 C 174.171 168.000,174.455 167.460,174.600 166.800 C 174.745 166.140,175.029 165.600,175.232 165.600 C 175.434 165.600,175.600 165.334,175.600 165.008 C 175.600 164.264,179.894 160.000,180.644 160.000 C 180.950 160.000,181.200 159.831,181.200 159.625 C 181.200 158.806,188.032 158.818,188.333 159.637 M251.000 192.800 C 250.864 193.020,250.043 193.200,249.176 193.200 C 248.309 193.200,247.600 193.380,247.600 193.600 C 247.600 193.820,247.060 194.000,246.400 194.000 C 245.740 194.000,245.200 194.160,245.200 194.355 C 245.200 194.551,244.602 194.823,243.870 194.960 C 243.139 195.098,242.180 195.546,241.739 195.956 C 241.299 196.366,240.557 196.823,240.090 196.972 C 239.623 197.120,239.130 197.592,238.994 198.020 C 238.857 198.449,238.579 198.800,238.374 198.800 C 237.813 198.800,234.000 202.876,234.000 203.476 C 234.000 203.764,233.820 204.000,233.600 204.000 C 233.380 204.000,233.200 204.341,233.200 204.757 C 233.200 205.174,232.930 205.618,232.600 205.745 C 232.270 205.871,232.000 206.341,232.000 206.787 C 232.000 207.234,231.820 207.600,231.600 207.600 C 231.380 207.600,231.200 208.050,231.200 208.600 C 231.200 209.150,231.037 209.600,230.838 209.600 C 230.638 209.600,230.351 210.500,230.200 211.600 C 230.049 212.700,229.762 213.600,229.562 213.600 C 229.363 213.600,229.200 214.230,229.200 215.000 C 229.200 215.770,229.020 216.400,228.800 216.400 C 228.578 216.400,228.400 217.459,228.400 218.776 C 228.400 220.083,228.220 221.264,228.000 221.400 C 227.768 221.543,227.600 223.730,227.600 226.600 C 227.600 229.470,227.768 231.657,228.000 231.800 C 228.220 231.936,228.400 233.027,228.400 234.224 C 228.400 235.421,228.580 236.400,228.800 236.400 C 229.020 236.400,229.200 237.030,229.200 237.800 C 229.200 238.570,229.357 239.200,229.548 239.200 C 229.739 239.200,229.992 240.049,230.109 241.087 C 230.226 242.125,230.519 243.040,230.761 243.120 C 231.002 243.201,231.200 243.702,231.200 244.233 C 231.200 244.765,231.380 245.200,231.600 245.200 C 231.820 245.200,232.000 245.566,232.000 246.013 C 232.000 246.459,232.270 246.929,232.600 247.055 C 232.930 247.182,233.200 247.626,233.200 248.043 C 233.200 248.459,233.341 248.800,233.514 248.800 C 233.686 248.800,234.128 249.295,234.495 249.900 C 235.091 250.883,236.528 252.434,238.471 254.192 C 238.841 254.527,239.336 254.800,239.571 254.800 C 239.807 254.800,240.000 254.977,240.000 255.192 C 240.000 255.408,240.450 255.698,241.000 255.836 C 241.550 255.974,242.000 256.203,242.000 256.346 C 242.000 256.488,242.585 256.844,243.300 257.136 C 244.015 257.428,245.032 257.877,245.561 258.134 C 246.944 258.805,260.584 258.776,261.260 258.100 C 261.535 257.825,262.174 257.600,262.680 257.600 C 263.186 257.600,263.600 257.420,263.600 257.200 C 263.600 256.980,263.870 256.800,264.200 256.800 C 264.530 256.800,264.800 256.638,264.800 256.439 C 264.800 256.241,265.342 255.889,266.005 255.658 C 266.668 255.427,267.317 254.959,267.448 254.619 C 267.579 254.279,267.930 254.000,268.229 254.000 C 268.872 254.000,271.600 251.365,271.600 250.744 C 271.600 250.508,272.050 249.961,272.600 249.529 C 273.150 249.096,273.600 248.395,273.600 247.971 C 273.600 247.547,273.780 247.200,274.000 247.200 C 274.220 247.200,274.400 246.930,274.400 246.600 C 274.400 246.270,274.538 246.000,274.706 246.000 C 275.123 246.000,276.400 242.983,276.400 241.997 C 276.400 241.559,276.580 241.200,276.800 241.200 C 277.020 241.200,277.200 240.765,277.200 240.233 C 277.200 239.702,277.373 239.207,277.584 239.133 C 277.795 239.060,278.091 237.515,278.241 235.700 C 278.392 233.885,278.669 232.400,278.858 232.400 C 279.046 232.400,279.200 229.070,279.200 225.000 C 279.200 220.930,279.046 217.600,278.859 217.600 C 278.671 217.600,278.400 216.213,278.257 214.518 C 278.114 212.823,277.817 211.257,277.598 211.038 C 277.379 210.819,277.200 210.226,277.200 209.720 C 277.200 209.214,277.043 208.800,276.851 208.800 C 276.659 208.800,276.387 208.080,276.246 207.200 C 276.106 206.320,275.813 205.600,275.595 205.600 C 275.378 205.600,275.200 205.340,275.200 205.023 C 275.200 204.705,274.869 204.210,274.465 203.923 C 274.060 203.635,273.610 202.917,273.464 202.327 C 273.318 201.736,272.839 201.139,272.399 201.000 C 271.960 200.860,271.600 200.516,271.600 200.234 C 271.600 199.679,270.275 198.000,269.836 198.000 C 269.579 198.000,269.048 197.606,267.815 196.500 C 267.508 196.225,267.064 196.000,266.829 196.000 C 266.593 196.000,266.400 195.840,266.400 195.645 C 266.400 195.449,265.770 195.171,265.000 195.026 C 264.230 194.882,263.600 194.592,263.600 194.382 C 263.600 194.172,263.161 194.000,262.624 194.000 C 262.087 194.000,261.536 193.820,261.400 193.600 C 261.264 193.380,260.364 193.200,259.400 193.200 C 258.436 193.200,257.536 193.020,257.400 192.800 C 257.264 192.580,255.824 192.400,254.200 192.400 C 252.576 192.400,251.136 192.580,251.000 192.800 M257.531 203.594 C 257.606 203.817,257.922 204.000,258.233 204.000 C 258.545 204.000,258.800 204.180,258.800 204.400 C 258.800 204.620,259.070 204.800,259.400 204.800 C 260.355 204.800,261.717 206.419,263.102 209.200 C 263.486 209.970,263.935 210.660,264.100 210.733 C 264.265 210.807,264.400 211.122,264.400 211.433 C 264.400 211.745,264.566 212.000,264.768 212.000 C 264.971 212.000,265.265 213.215,265.421 214.700 C 265.578 216.185,265.867 217.503,266.063 217.629 C 266.524 217.926,266.531 233.668,266.070 233.971 C 265.878 234.097,265.598 235.280,265.447 236.600 C 265.296 237.920,264.999 239.060,264.786 239.133 C 264.574 239.207,264.400 239.702,264.400 240.233 C 264.400 240.765,264.220 241.200,264.000 241.200 C 263.780 241.200,263.600 241.560,263.600 242.000 C 263.600 242.440,263.432 242.800,263.227 242.800 C 263.022 242.800,262.744 243.146,262.610 243.570 C 262.235 244.749,259.345 247.548,258.207 247.834 C 257.649 247.974,257.094 248.249,256.973 248.444 C 256.852 248.640,256.234 248.800,255.600 248.800 C 254.966 248.800,254.326 248.996,254.178 249.235 C 253.985 249.548,253.788 249.548,253.475 249.235 C 253.236 248.996,252.547 248.800,251.944 248.800 C 251.341 248.800,250.748 248.640,250.627 248.444 C 250.506 248.249,249.943 247.972,249.374 247.829 C 248.199 247.534,244.800 244.216,244.800 243.363 C 244.800 243.053,244.662 242.800,244.494 242.800 C 244.173 242.800,242.800 239.880,242.800 239.197 C 242.800 238.979,242.620 238.800,242.400 238.800 C 242.180 238.800,242.000 238.185,242.000 237.433 C 242.000 236.682,241.775 235.992,241.500 235.900 C 241.119 235.773,241.000 233.471,241.000 226.200 C 241.000 218.929,241.119 216.627,241.500 216.500 C 241.775 216.408,242.000 215.718,242.000 214.967 C 242.000 214.215,242.164 213.600,242.365 213.600 C 242.566 213.600,242.858 212.838,243.016 211.907 C 243.173 210.976,243.556 210.028,243.868 209.800 C 244.445 209.378,245.401 207.897,245.820 206.777 C 245.948 206.434,246.671 205.820,247.427 205.414 C 248.182 205.007,248.800 204.522,248.800 204.337 C 248.800 204.152,249.070 204.000,249.400 204.000 C 249.730 204.000,250.000 203.832,250.000 203.627 C 250.000 202.779,257.249 202.748,257.531 203.594 " stroke="none" fill="#048cd4" fill-rule="evenodd"></path><path id="path1" d="" stroke="none" fill="#088cd4" fill-rule="evenodd"></path><path id="path2" d="" stroke="none" fill="#088cd4" fill-rule="evenodd"></path><path id="path3" d="" stroke="none" fill="#088cd4" fill-rule="evenodd"></path><path id="path4" d="" stroke="none" fill="#088cd4" fill-rule="evenodd"></path></g></svg>